<svg width="100" height="100" viewBox="0 0 100 100" fill="none" xmlns="http://www.w3.org/2000/svg">
<path fill-rule="evenodd" clip-rule="evenodd" d="M50 100C77.6143 100 100 77.6143 100 50C100 22.3857 77.6143 0 50 0C22.3857 0 0 22.3857 0 50C0 77.6143 22.3857 100 50 100ZM45 25C45 22.2385 47.2383 20 50 20C52.7617 20 55 22.2385 55 25V55C55 57.7615 52.7617 60 50 60C47.2383 60 45 57.7615 45 55V25ZM45 75C45 72.2385 47.2383 70 50 70C52.7617 70 55 72.2385 55 75C55 77.7615 52.7617 80 50 80C47.2383 80 45 77.7615 45 75Z" fill="#F60B60"/>
</svg>
