<svg width="100" height="100" viewBox="0 0 100 100" fill="none" xmlns="http://www.w3.org/2000/svg">
<path fill-rule="evenodd" clip-rule="evenodd" d="M50 0C77.6142 0 100 22.3858 100 50C100 77.6142 77.6142 100 50 100C22.3858 100 0 77.6142 0 50C0 22.3858 22.3858 0 50 0ZM45 75C45 77.7614 47.2386 80 50 80C52.7614 80 55 77.7614 55 75V45C55 42.2386 52.7614 40 50 40C47.2386 40 45 42.2386 45 45V75ZM45 25C45 27.7614 47.2386 30 50 30C52.7614 30 55 27.7614 55 25C55 22.2386 52.7614 20 50 20C47.2386 20 45 22.2386 45 25Z" fill="#09CAF4"/>
</svg>
