<svg width="100" height="100" viewBox="0 0 100 100" fill="none" xmlns="http://www.w3.org/2000/svg">
<path fill-rule="evenodd" clip-rule="evenodd" d="M50 100C77.6142 100 100 77.6142 100 50C100 22.3858 77.6142 0 50 0C22.3858 0 0 22.3858 0 50C0 77.6142 22.3858 100 50 100ZM25.4645 46.6066C23.5118 48.5592 23.5118 51.725 25.4645 53.6777L39.6066 67.8198C41.5592 69.7724 44.725 69.7724 46.6777 67.8198L74.9619 39.5355C76.9146 37.5829 76.9146 34.4171 74.9619 32.4645C73.0093 30.5118 69.8435 30.5118 67.8909 32.4645L43.1421 57.2132L32.5355 46.6066C30.5829 44.654 27.4171 44.654 25.4645 46.6066Z" fill="#00CF91"/>
</svg>
