<svg width="1001" height="357" viewBox="0 0 1001 357" fill="none" xmlns="http://www.w3.org/2000/svg">
<path fill-rule="evenodd" clip-rule="evenodd" d="M104.835 111.881L2.85055 60.8893L0 66.5904L101.984 117.583C167.082 150.132 243.706 150.132 308.804 117.583C372.107 85.9309 446.619 85.9309 509.922 117.583C575.02 150.132 651.644 150.132 716.742 117.583C780.045 85.9309 854.556 85.9309 917.86 117.583C982.958 150.132 1059.58 150.132 1124.68 117.583L1226.66 66.5904L1223.81 60.8893L1121.83 111.881C1058.53 143.533 984.014 143.533 920.71 111.881C855.612 79.3325 778.989 79.3325 713.891 111.881C650.588 143.533 576.076 143.533 512.773 111.881C447.675 79.3325 371.051 79.3325 305.953 111.881C242.65 143.533 168.138 143.533 104.835 111.881ZM104.835 162.874L2.85055 111.881L0 117.582L101.984 168.575C167.082 201.124 243.706 201.124 308.804 168.575C372.107 136.923 446.619 136.923 509.922 168.575C575.02 201.124 651.644 201.124 716.742 168.575C780.045 136.923 854.556 136.923 917.86 168.575C982.958 201.124 1059.58 201.124 1124.68 168.575L1226.66 117.582L1223.81 111.881L1121.83 162.874C1058.53 194.525 984.014 194.525 920.71 162.874C855.612 130.325 778.989 130.325 713.891 162.874C650.588 194.525 576.076 194.525 512.773 162.874C447.675 130.325 371.051 130.325 305.953 162.874C242.65 194.525 168.138 194.525 104.835 162.874ZM2.85055 162.874L104.835 213.866C168.138 245.518 242.65 245.518 305.953 213.866C371.051 181.317 447.675 181.317 512.773 213.866C576.076 245.518 650.588 245.518 713.891 213.866C778.989 181.317 855.612 181.317 920.71 213.866C984.014 245.518 1058.53 245.518 1121.83 213.866L1223.81 162.874L1226.66 168.575L1124.68 219.567C1059.58 252.116 982.958 252.116 917.86 219.567C854.556 187.915 780.045 187.915 716.742 219.567C651.644 252.116 575.02 252.116 509.922 219.567C446.619 187.915 372.107 187.915 308.804 219.567C243.706 252.116 167.082 252.116 101.984 219.567L0 168.575L2.85055 162.874ZM104.835 264.858L2.85055 213.866L0 219.567L101.984 270.559C167.082 303.108 243.706 303.108 308.804 270.559C372.107 238.907 446.619 238.907 509.922 270.559C575.02 303.108 651.644 303.108 716.742 270.559C780.045 238.907 854.556 238.907 917.86 270.559C982.958 303.108 1059.58 303.108 1124.68 270.559L1226.66 219.567L1223.81 213.866L1121.83 264.858C1058.53 296.51 984.014 296.51 920.71 264.858C855.612 232.309 778.989 232.309 713.891 264.858C650.588 296.51 576.076 296.51 512.773 264.858C447.675 232.309 371.051 232.309 305.953 264.858C242.65 296.51 168.138 296.51 104.835 264.858Z" fill="url(#paint0_linear_460_306)"/>
<path fill-rule="evenodd" clip-rule="evenodd" d="M917.509 289.768L927.07 273.208L959.204 277.041L945.394 300.961L949.074 303.086L975.632 257.085L934.013 252.683L913.829 287.644L917.509 289.768ZM965.578 266.001L933.444 262.168L930.257 267.688L962.391 271.521L965.578 266.001Z" fill="white"/>
<path fill-rule="evenodd" clip-rule="evenodd" d="M934.564 306.973C939.645 309.907 946.142 308.166 949.076 303.085C952.009 298.004 950.269 291.506 945.187 288.573C940.106 285.639 933.609 287.38 930.676 292.461C927.742 297.542 929.483 304.04 934.564 306.973ZM903.017 293.656C908.098 296.589 914.595 294.848 917.529 289.767C920.463 284.686 918.722 278.189 913.641 275.255C908.56 272.322 902.062 274.063 899.129 279.144C896.195 284.225 897.936 290.722 903.017 293.656Z" fill="url(#paint1_linear_460_306)"/>
<path fill-rule="evenodd" clip-rule="evenodd" d="M538.899 172.802L531.475 145.097L569.623 115.079L580.346 155.098L586.503 153.448L565.882 76.4881L517.07 115.963L532.742 174.452L538.899 172.802ZM564.674 96.6082L526.526 126.626L529 135.862L567.149 105.843L564.674 96.6082Z" fill="white"/>
<path fill-rule="evenodd" clip-rule="evenodd" d="M575.239 172.962C583.74 170.684 588.785 161.946 586.507 153.446C584.229 144.945 575.491 139.9 566.991 142.178C558.49 144.456 553.445 153.193 555.723 161.694C558.001 170.195 566.738 175.24 575.239 172.962ZM527.61 192.322C536.111 190.044 541.156 181.307 538.878 172.806C536.6 164.305 527.863 159.26 519.362 161.538C510.861 163.816 505.816 172.554 508.094 181.054C510.372 189.555 519.11 194.6 527.61 192.322Z" fill="url(#paint2_linear_460_306)"/>
<path d="M706.385 234.863L718.758 281.039L712.601 282.689L696.635 223.102L720.468 216.715L724.062 230.126L706.385 234.863Z" fill="white"/>
<path d="M718.774 281.04C721.052 289.541 716.007 298.278 707.506 300.556C699.005 302.834 690.268 297.789 687.99 289.288C685.712 280.787 690.757 272.05 699.258 269.772C707.759 267.494 716.496 272.539 718.774 281.04Z" fill="url(#paint3_linear_460_306)"/>
<path d="M300.675 163.951L288.302 210.127L282.145 208.477L298.111 148.89L321.945 155.276L318.352 168.687L300.675 163.951Z" fill="white"/>
<path d="M288.3 210.128C286.022 218.628 277.284 223.673 268.783 221.395C260.282 219.118 255.238 210.38 257.515 201.879C259.793 193.378 268.531 188.333 277.032 190.611C285.533 192.889 290.577 201.627 288.3 210.128Z" fill="url(#paint4_linear_460_306)"/>
<path d="M498.592 267.709C498.592 316.993 458.639 356.946 409.356 356.946C360.072 356.946 320.119 316.993 320.119 267.709C320.119 218.425 360.072 178.473 409.356 178.473C458.639 178.473 498.592 218.425 498.592 267.709Z" fill="#191C1A"/>
<path fill-rule="evenodd" clip-rule="evenodd" d="M409.356 350.572C455.119 350.572 492.218 313.473 492.218 267.709C492.218 221.946 455.119 184.847 409.356 184.847C363.592 184.847 326.493 221.946 326.493 267.709C326.493 313.473 363.592 350.572 409.356 350.572ZM409.356 356.946C458.639 356.946 498.592 316.993 498.592 267.709C498.592 218.425 458.639 178.473 409.356 178.473C360.072 178.473 320.119 218.425 320.119 267.709C320.119 316.993 360.072 356.946 409.356 356.946Z" fill="#A0D2AD"/>
<mask id="mask0_460_306" style="mask-type:alpha" maskUnits="userSpaceOnUse" x="320" y="140" width="179" height="217">
<path fill-rule="evenodd" clip-rule="evenodd" d="M498.586 140.229H320.113V267.709C320.113 316.993 360.066 356.945 409.35 356.945C458.634 356.945 498.586 316.993 498.586 267.709V140.229Z" fill="#D9D9D9"/>
</mask>
<g mask="url(#mask0_460_306)">
<path d="M396.604 216.717V209.249C396.604 197.706 401.189 186.635 409.352 178.473V165.725H391.734C379.093 165.725 367.536 172.867 361.883 184.174C359.566 188.808 358.359 193.918 358.359 199.099V216.717H396.604Z" fill="#354036"/>
<path d="M464.249 331.449H418.195C413.845 331.449 410.773 335.712 412.148 339.839L415.054 348.556C415.49 349.864 415.49 351.279 415.054 352.587L412.148 361.304C410.773 365.431 413.845 369.693 418.195 369.693H464.249C468.599 369.693 471.671 365.431 470.296 361.304L467.39 352.587C466.954 351.279 466.954 349.864 467.39 348.556L470.296 339.839C471.671 335.712 468.599 331.449 464.249 331.449Z" fill="#A0D2AD"/>
<path fill-rule="evenodd" clip-rule="evenodd" d="M358.357 254.961L373.722 208.867C379.773 190.716 396.759 178.473 415.892 178.473C440.441 178.473 460.342 198.374 460.342 222.923V331.449H422.098V305.953H396.602C389.561 305.953 383.854 300.246 383.854 293.205V283.644H391.321C403.71 283.644 415.591 278.723 424.351 269.963L419.844 265.456C412.279 273.021 402.019 277.27 391.321 277.27H383.854V254.961H358.357ZM402.976 229.465C406.496 229.465 409.35 226.611 409.35 223.091C409.35 219.571 406.496 216.717 402.976 216.717C399.455 216.717 396.602 219.571 396.602 223.091C396.602 226.611 399.455 229.465 402.976 229.465Z" fill="#F9C799"/>
<path d="M441.223 248.587V235.839C441.223 232.319 444.076 229.465 447.597 229.465H453.971C461.011 229.465 466.719 235.172 466.719 242.213V286.831C466.719 290.351 463.865 293.205 460.345 293.205C456.824 293.205 453.971 290.351 453.971 286.831V254.961H447.597C444.076 254.961 441.223 252.107 441.223 248.587Z" fill="white"/>
<path d="M422.1 216.717V209.249C422.1 197.706 417.514 186.635 409.352 178.473V165.725H439.717C452.358 165.725 463.915 172.867 469.568 184.174C471.885 188.808 473.092 193.918 473.092 199.099V216.717H422.1Z" fill="#354036"/>
<path d="M383.855 140.229L409.352 165.725H396.604C389.563 165.725 383.855 160.017 383.855 152.977V140.229Z" fill="#354036"/>
</g>
<path d="M753.557 127.481C753.557 176.764 793.509 216.717 842.793 216.717C892.077 216.717 932.029 176.764 932.029 127.481C932.029 78.1966 892.077 38.2441 842.793 38.2441C793.509 38.2441 753.557 78.1966 753.557 127.481Z" fill="#191C1A"/>
<path fill-rule="evenodd" clip-rule="evenodd" d="M842.793 210.343C797.029 210.343 759.931 173.244 759.931 127.481C759.931 81.7169 797.029 44.6182 842.793 44.6182C888.557 44.6182 925.655 81.7169 925.655 127.481C925.655 173.244 888.557 210.343 842.793 210.343ZM842.793 216.717C793.509 216.717 753.557 176.764 753.557 127.481C753.557 78.1966 793.509 38.2441 842.793 38.2441C892.077 38.2441 932.029 78.1966 932.029 127.481C932.029 176.764 892.077 216.717 842.793 216.717Z" fill="#A3CDDA"/>
<mask id="mask1_460_306" style="mask-type:alpha" maskUnits="userSpaceOnUse" x="753" y="0" width="180" height="217">
<path fill-rule="evenodd" clip-rule="evenodd" d="M753.557 0H932.029V127.481C932.029 176.764 892.077 216.717 842.793 216.717C793.509 216.717 753.557 176.764 753.557 127.481V0Z" fill="#D9D9D9"/>
</mask>
<g mask="url(#mask1_460_306)">
<path d="M861.184 71.4819L855.538 57.3662L823.668 44.6182L842.79 25.4961H849.164C870.286 25.4961 887.408 42.6186 887.408 63.7402V89.2364C875.859 89.2364 865.474 82.205 861.184 71.4819Z" fill="#5D6564"/>
<path d="M785.423 191.221H829.144C837.669 191.221 845.629 195.481 850.358 202.574L861.679 219.555C864.503 223.791 861.466 229.465 856.375 229.465H785.423C781.903 229.465 779.049 226.611 779.049 223.091V197.595C779.049 194.074 781.903 191.221 785.423 191.221Z" fill="#A3CDDA"/>
<path fill-rule="evenodd" clip-rule="evenodd" d="M868.285 114.732H881.033L868.285 76.4883C868.285 55.3666 851.163 38.2441 830.041 38.2441C808.919 38.2441 791.797 55.3666 791.797 76.4883V191.221H830.041V165.725H855.537C862.578 165.725 868.285 160.017 868.285 152.977V143.416H860.818C848.429 143.416 836.548 138.494 827.787 129.734L832.295 125.227C839.859 132.792 850.119 137.042 860.818 137.042H868.285V114.732ZM849.163 101.984C845.643 101.984 842.789 99.1306 842.789 95.6104C842.789 92.0901 845.643 89.2363 849.163 89.2363C852.684 89.2363 855.537 92.0901 855.537 95.6104C855.537 99.1306 852.684 101.984 849.163 101.984Z" fill="#F9C799"/>
<path d="M810.92 108.358V95.6104C810.92 92.0901 808.066 89.2363 804.546 89.2363H798.172C791.131 89.2363 785.424 94.9438 785.424 101.984V146.603C785.424 150.123 788.278 152.977 791.798 152.977C795.318 152.977 798.172 150.123 798.172 146.603V114.732H804.546C808.066 114.732 810.92 111.879 810.92 108.358Z" fill="white"/>
<path d="M855.537 12.7479L830.041 38.244H842.789C849.83 38.244 855.537 32.5365 855.537 25.496V12.7479Z" fill="#5D6564"/>
<path d="M830.041 76.4882V38.244C808.919 38.244 791.797 55.3665 791.797 76.4882V89.2362H817.293C824.334 89.2362 830.041 83.5287 830.041 76.4882Z" fill="#C69E79"/>
</g>
<defs>
<linearGradient id="paint0_linear_460_306" x1="5.62655e-07" y1="177.973" x2="1227" y2="177.973" gradientUnits="userSpaceOnUse">
<stop stop-color="#414942" stop-opacity="0"/>
<stop offset="0.255208" stop-color="#414942"/>
<stop offset="0.75" stop-color="#414942"/>
<stop offset="1" stop-color="#414942" stop-opacity="0"/>
</linearGradient>
<linearGradient id="paint1_linear_460_306" x1="893.817" y1="288.344" x2="954.388" y2="293.881" gradientUnits="userSpaceOnUse">
<stop stop-color="#00CF91"/>
<stop offset="1" stop-color="#07ACD0"/>
</linearGradient>
<linearGradient id="paint2_linear_460_306" x1="512.218" y1="196.446" x2="582.368" y2="138.036" gradientUnits="userSpaceOnUse">
<stop stop-color="#00FF85"/>
<stop offset="1" stop-color="#0094FF"/>
</linearGradient>
<linearGradient id="paint3_linear_460_306" x1="686.48" y1="314.439" x2="737.003" y2="288.668" gradientUnits="userSpaceOnUse">
<stop stop-color="#00CF91"/>
<stop offset="1" stop-color="#07ACD0"/>
</linearGradient>
<linearGradient id="paint4_linear_460_306" x1="243.633" y1="222.905" x2="300.273" y2="225.848" gradientUnits="userSpaceOnUse">
<stop stop-color="#00FF85"/>
<stop offset="1" stop-color="#0094FF"/>
</linearGradient>
</defs>
</svg>
